<?xml version="1.0" encoding="utf-8"?>
<svg xmlns="http://www.w3.org/2000/svg" id="Layer_1" style="enable-background:new 0 0 160 60;" version="1.1" viewBox="0 0 160 60" x="0px" y="0px">
<style type="text/css">
	.st0{fill:#FFFFFF;}
</style>
<title>Asset 17</title>
<g>
	<path d="M129.1,41.9c-1.5-1.3-4.9-1.2-7.3-1.1c-0.5,0-0.9,0-1.4-0.1c-0.8-0.1-1.7-0.2-3,0.2l-6.2-0.1l-0.1,0l-0.1,0.1l0,0.1&#xA;		c-1.6-0.4-3.3-0.4-4.8-0.4c-0.6,0-1.1,0-1.6,0.1c-0.1,0-0.2,0-0.4,0c0.1-0.3,0.2-0.6,0.3-0.8c0.1-0.3,0.2-0.6,0.3-0.8l0.1-0.3h-0.4&#xA;		h-1.7h-4.4h-0.2L98.2,39c-0.2,0.5-0.6,1.2-1,1.9l-1.6,0c-1.9-0.3-5.5-0.6-8.5,0.7c-0.6-0.3-1.2-0.5-1.7-0.6&#xA;		c-2.8-0.6-5.9-0.3-8.4,0.6c-1-0.8-2.5-1.1-4.7-1l0,0l0,0c-1.1,0.2-2.4,0.2-3.7,0.2c-0.5,0-0.9,0-1.3,0c0.3-0.6,0.8-1.7,1.1-2.4&#xA;		l0.2-0.3h-0.4l-6.2,0h-0.2l-0.1,0.1l-1.5,3c-1.2-0.7-3.3-0.8-5-0.6c-0.9,0.1-1.9,0.1-2.8,0.1c-0.2,0-0.4,0-0.6,0&#xA;		c0.1-0.3,0.3-0.6,0.4-0.9c0.2-0.5,0.5-0.9,0.6-1.4l0.1-0.3h-0.4l-6.2,0h-0.2l-0.1,0.1c-0.2,0.4-0.4,0.8-0.5,1.1&#xA;		c-0.3,0.6-0.5,1.2-0.8,1.7c-0.3-0.1-0.6-0.2-1-0.3c-2.7-0.4-5.6-0.7-8.8,0.7c-1.8,0.7-3,2.6-3.9,3.9L31,45.7L30.8,46&#xA;		c0,0,0.1,0,0.2,0c-1,1.1-1.3,2.2-0.8,3.3l0,0l0,0c1.3,2.3,5,1.9,6.7,1.7c0.4,0,0.8-0.1,1.2-0.2l0,0v0l0,0.2c0,0,0.3,0,0.3,0&#xA;		c1.6,0,2.7,0,3.7,0l1.1,0c-0.2,0.4-0.4,0.9-0.6,1.3c-0.2,0.4-0.4,0.9-0.6,1.3L42,54h0.4h6.1h0.2l0.1-0.1c0.5-1.1,0.9-2,1.4-2.9&#xA;		c0.8,0.5,2.5,0.5,2.6,0.5c1,0,2.1-0.1,2.9-0.4l0.1,0.2h0.2l4.9,0l14,0h0.2L75,51l0.1-0.1c2.5,0.8,6.2,0.7,9-0.4l1.2,0.5&#xA;		c2,0.7,6.6,0.5,9.4-0.4c0.6,0.5,1.7,0.8,2.5,0.7c1.7-0.1,2.2-0.1,2.7,0c0.4,0,0.9,0.1,2,0.1c0.7,0,1.4-0.2,2-0.3&#xA;		c0.2-0.1,0.4-0.1,0.6-0.1l0,0.2c0,0,0.3,0,0.3,0h7.7h0.1l0.1-0.1c0.3-0.5,0.5-1,0.8-1.5c0.1-0.1,0.1-0.2,0.2-0.3&#xA;		c0.3,0.5,0.8,0.9,1.1,1.2l0,0l0,0c2,1.1,4.9,1.4,8.5,0.8c2.5-0.4,5.4-1.2,5.8-4c0.1-0.5-0.1-0.8-0.2-1.1c0.2,0,0.4,0,0.7,0l0.2,0&#xA;		l0-0.2c0.1-0.3,0.1-0.7,0.1-1l0.1-0.6C130.1,43.3,129.8,42.4,129.1,41.9L129.1,41.9z"/>
	<path d="M77.6,48.4L77.6,48.4C77.6,48.4,77.6,48.4,77.6,48.4L77.6,48.4z"/>
	<polygon class="st0" points="66.2,39.4 62.5,39.4 61.6,41.4 65.4,41.4 66.5,39.4 66.2,39.4"/>
	<path class="st0" d="M50.8,39.5l-0.2,0l-3.5,0l0,0.1c0,0-1.5,3.1-1.7,3.5c-0.1-0.1-0.3-0.3-0.3-0.3c-1-0.7-2.9-1.1-5.8-0.9&#xA;		c-2.8,0.2-4.8,1-5.8,2.6l-0.2,0.2H37l0-0.1c0.4-0.5,1-0.9,1.9-0.9c0.9-0.1,1.8-0.2,2.5,0.3c0.2,0.1,0.2,0.2,0.1,0.3&#xA;		c-0.1,0.3-0.5,0.5-0.8,0.5C40,44.9,39,45,38.1,45c-2.1,0.1-4.2,0.2-5.8,1.6c-0.8,0.7-1.1,1.5-0.9,2.2c0.3,0.6,1,0.8,1.5,1l0.2,0&#xA;		c2.2,0.3,4.4,0,6.3-0.8c0,0.3-0.1,0.8-0.1,0.8l0.2,0c0,0,5.3,0,5.8,0c-0.2,0.4-1.2,2.9-1.2,2.9l0.2,0h3.6l1.7-3.7c0,0,0,0,0-0.1&#xA;		c0.6,0.8,1.4,0.9,2.2,1.1l0.2,0c2,0.2,5.1-1,6.2-1.4c-0.2,0.4-0.6,1.2-0.6,1.2l3.7,0l3.6-7.8l-3.6,0c0,0-0.4,0.8-0.6,1.1&#xA;		c-0.3-0.6-0.9-0.9-2-1.1c-1.9-0.3-4.5-0.2-6.5,0.9c0.1-0.3,0.5-0.9,0.5-0.9s-2.5,0-3,0c0.1-0.3,1.2-2.5,1.2-2.5L50.8,39.5&#xA;		L50.8,39.5z M35.6,48.2L35.6,48.2c-0.2-0.1-0.3-0.2-0.4-0.4c0-0.4,0.5-0.7,0.8-0.9c0.7-0.3,1.6-0.3,2.5-0.4c0.7-0.1,1.4-0.1,2-0.3&#xA;		c-0.1,0.3-0.2,0.6-0.5,0.9C38.9,48.3,36.2,48.5,35.6,48.2L35.6,48.2z M50.6,47.2c0-0.1,0-0.3,0-0.4c0-0.7,0.4-1.4,1.2-2.2&#xA;		c1.2-0.9,3.2-1.4,4.5-0.6c0,0,0.3,0.2,0.3,0.3c0,0,0.2,0.3,0.2,0.3c0.1,0.1,0.1,0.3,0.1,0.4c0,0.8-0.8,1.8-1.6,2.3&#xA;		c-1.1,0.7-3.1,1-4,0.5C50.9,47.9,50.7,47.7,50.6,47.2L50.6,47.2z"/>
	<path class="st0" d="M99,40.2c0,0-0.9,1.8-1,1.9h-1.8l-0.1,0.2c0,0,0,0.1,0,0.1c-0.1-0.1-0.3-0.2-0.7-0.3c-2.8-0.7-6.1-0.3-8.5,1.1&#xA;		c-0.5-0.5-1.3-0.9-1.7-1c-3-0.6-6.2-0.2-8.6,0.9c-0.3-0.5-0.8-0.8-1.6-1c-1.9-0.3-4.2-0.5-6.6,0.9c0.1-0.1,0.4-0.9,0.4-0.9l-0.2,0&#xA;		l-3.2,0l-3.7,7.7l3.5,0l2.3-4.6c0.6-0.8,1.5-1.1,2.4-1.3c0,0,0.2,0,0.2,0c0.8-0.1,1.9-0.2,2.5,0.5c0,0,0,0.1,0,0.1&#xA;		c0,0.1,0,0.2,0,0.3c0,0-2.3,4.9-2.3,4.9l-0.1,0.2h3.9c0,0,0.3-0.5,0.3-0.7c0.5,0.3,1.2,0.6,1.8,0.7c2.7,0.5,5.5,0.2,7.9-0.9&#xA;		c0.4,0.2,0.9,0.5,1.3,0.6c2.6,0.9,6.8,0.6,9.5-0.7c0.1,0.2,0.2,0.3,0.3,0.5c0.9,0.7,1.7,0.6,2.5,0.6c0.4,0,0.8-0.1,1.3,0&#xA;		c3.2,0.5,4.9-0.1,6.8-0.9c0,0.2-0.1,0.4-0.1,0.4l-0.1,0.4l0.2,0l5.8,0l2.1-4.2c0.7-1.1,1.8-1.3,2.9-1.5c-0.2,0.3-0.3,0.5-0.3,0.8&#xA;		c0,0,0,0.1,0,0.1c0,0.4,0.1,0.6,0.4,0.9c1.2,0.7,2.5,0.8,3.9,1c0.9,0.1,1.8,0.2,2.6,0.4c0.1,0,0.2,0.1,0.2,0.2c0,0,0,0,0,0&#xA;		c-0.1,0.4-0.7,0.6-1.9,0.7l-0.3,0c-1,0-2,0.1-2.8-0.5c-0.1-0.1-0.1-0.2,0-0.3l0-0.3l-0.2,0h-3.7l0,0.1c-0.2,0.3-0.2,0.6-0.2,0.9&#xA;		v0.1c0,0.6,0.7,1,1.1,1.2l0.1,0c2.1,0.7,4.8,0.9,7.3,0.4c3-0.5,4.5-1.5,4.6-2.9c0-0.4-0.2-0.6-0.4-0.9c-0.5-0.6-2.5-0.9-4.4-1.1&#xA;		l-1.5-0.2c0,0-0.3-0.1-0.3-0.1c-0.4-0.1-0.6-0.1-0.7-0.4c0.3-0.4,0.7-0.5,1.2-0.6l0.4-0.1c0,0,0.3,0,0.3,0c0.8,0,1.6-0.1,2.2,0.3&#xA;		c0.1,0.1,0.2,0.3,0.2,0.5l0,0.2h3.8l0-0.1c0.1-0.4,0.2-0.8,0-1.2c-0.3-0.6-0.9-0.9-1.5-1.1c-2.2-0.5-5-0.5-7.2,0.1&#xA;		c0,0,0.2-0.5,0.2-0.5l-0.2,0c-1.8-0.1-3.5,0.3-4.9,1.3c0.2-0.4,0.5-1.1,0.5-1.1h-3.7c0,0-0.2,0.3-0.3,0.5c-0.2-0.1-0.4-0.2-0.7-0.3&#xA;		c-2.1-0.6-4.6-0.6-6.8-0.1c0-0.1,0-0.1,0-0.1h-1c0,0-0.7,0-1.1,0c0.2-0.3,0.6-1.2,0.6-1.2l0.4-0.8l-0.2,0L99,40.2L99,40.2L99,40.2z&#xA;		 M82.6,43.9L82.6,43.9c0.4,0.1,0.8,0.3,1,0.7c0,0.1,0,0.1,0,0.2c0,0.1,0,0.2-0.1,0.3c-0.2,0-4.4,0-5,0C79.4,44,80.9,43.6,82.6,43.9&#xA;		L82.6,43.9z M90,44c0.7-0.3,3.1-0.4,3.6-0.1c0,0,0.1,0.1,0.2,0.2c0,0.1,0.1,0.6,0.1,0.6h3c-0.2,0.4-0.4,0.9-0.6,1.2&#xA;		c-1.1-0.6-2.5-0.8-3.8-0.9c-0.9-0.1-1.9-0.2-2.7-0.5c0,0-0.1-0.1-0.1-0.1C89.6,44.2,89.9,44.1,90,44L90,44z M103.6,44.8&#xA;		c0.6-0.8,1.7-1.1,3.5-0.9c0,0,0.6,0.1,0.6,0.1c0,0,0.3,0.1,0.3,0.1c0.1,0.1,0.1,0.1,0.1,0.2c0,0,0,0.1,0,0.1&#xA;		c-0.3,0.5-0.8,0.5-1.3,0.6l-0.1,0c0,0-1.7,0.1-1.7,0.1c-1.6,0.1-3.3,0.2-4.8,0.8c0-0.1,0.4-0.9,0.5-1.1&#xA;		C100.8,44.8,103.6,44.8,103.6,44.8L103.6,44.8L103.6,44.8z M86.8,46.7L86.8,46.7c0.1,0,0.2-0.2,0.2-0.2c0.9,0.3,1.8,0.4,2.7,0.5&#xA;		c0.9,0.1,1.8,0.2,2.7,0.4c0.1,0,0.1,0.1,0.2,0.2c0,0,0,0,0,0c0,0,0,0,0,0.1c-0.1,0.4-1.4,0.7-3.3,0.7c0,0-0.2,0-0.2,0&#xA;		c-0.6-0.1-1.1-0.1-1.4-0.5c0-0.2,0-0.3,0.1-0.4l0.1-0.2l-5.4,0l0,0.1c0,0-0.1,0.2-0.5,0.4c-1.2,0.6-3.4,0.7-4.2,0.2&#xA;		c-0.3-0.2-0.4-0.4-0.4-0.7c0,0,0-0.1,0-0.1c0-0.3,0-0.4,0.4-0.4C77.7,46.7,86.8,46.7,86.8,46.7L86.8,46.7z M101.7,48&#xA;		C101.7,47.9,101.7,47.9,101.7,48c0.2-0.7,0.9-0.9,1.5-1.1c0.6-0.1,1.2-0.2,1.8-0.2c0.7-0.1,1.4-0.1,2.1-0.3&#xA;		c-0.3,0.9-1.3,1.6-2.2,1.8c-1.2,0.3-2.2,0.3-2.9,0.1C101.8,48.2,101.7,48.1,101.7,48L101.7,48z"/>
	<path d="M88.9,6l-3.2,2.7c0,0-7.4,6.3-8.5,7.2c-1.4,0-3.3,0.4-4.2,0.6c-7.8,1.6-11.5,4.5-13.6,6.7c-0.6,0.7-1.3,1.3-2.4,3.1&#xA;		c-1,0.8-2.5,2.4-2.7,2.8c-0.8,1.1-1.1,2-1.1,2.8c0,0.7,0.2,1.2,0.4,1.6c0.6,1.1,2.1,2.2,5.8,1.7c3.3-0.6,5.8-1.8,11.4-4.3l0.9-0.4&#xA;		c0,0,0,0-0.1,0c0.1-0.1,0.7-0.3,3.7-1.7c1.4,0.4,15,4.4,15,4.4v-3c0,0,0-5.5,0-7.4c2.2-1,31.3-14.9,31.3-14.9s-28.3,5.2-31.8,5.9&#xA;		C89.5,11.9,88.9,6,88.9,6L88.9,6z"/>
	<path class="st0" d="M78,18.2L78,18.2l-0.1,0c-0.5-0.1-2.2,0-4.4,0.5c-7.1,1.5-10.3,3.8-12.6,6.1c0.9-0.2,7.1-1.4,7.1-1.4&#xA;		c0.7-0.9,1.6-1.5,3.3-1.8c0.7-0.2,1.7-0.3,1.8,0c0.1,0.1,0,0.3-0.2,0.5c-0.7,0.9-2.9,1.4-5.5,2.2c-4.2,1.2-8.7,2.7-11.4,6.2&#xA;		c-0.8,1-0.7,1.6-0.5,1.9c0.4,0.7,1.7,0.9,3.5,0.6c3.1-0.6,5.5-1.7,11.7-4.6c0,0,4.4-2.1,4.4-2.1S87.6,29.9,88,30c0-0.4,0-8.9,0-8.9&#xA;		s15.4-7.4,17.3-8.3c-1.9,0.4-17.5,3.3-17.5,3.3s-0.6-5.2-0.6-5.7C87,10.5,78,18.2,78,18.2L78,18.2z"/>
	<path d="M61.8,28.9c-0.1,0.1-0.2,0.2-0.2,0.3c0,0,0,0.1,0,0.1c0.1,0.2,0.5,0.2,1.5,0c2.2-0.5,3.7-1.9,5.4-3.5c0,0,0.1-0.1,0.3-0.2&#xA;		c-0.8,0.3-1.6,0.6-2.4,0.9C64.4,27.2,62.7,27.8,61.8,28.9L61.8,28.9z"/>
</g>
</svg>